<mxfile modified="2019-11-22T10:15:20.177Z" host="www.draw.io" agent="Mozilla/5.0 (Windows NT 10.0; Win64; x64) AppleWebKit/537.36 (KHTML, like Gecko) Chrome/77.0.3865.90 Safari/537.36" etag="gpsExGeUrP7VUWIMKZqy" version="12.2.9" type="github" pages="2">
  <diagram name="Page-1" id="8378b5f6-a2b2-b727-a746-972ab9d02e00">
    <mxGraphModel dx="1422" dy="762" grid="1" gridSize="10" guides="1" tooltips="1" connect="0" arrows="1" fold="1" page="1" pageScale="1.5" pageWidth="1169" pageHeight="827" background="#ffffff" math="0" shadow="0">
      <root>
        <mxCell id="0"/>
        <mxCell id="1" parent="0"/>
        <mxCell id="XQnTNOkBBtBdeSh8OOss-278" value="&lt;font style=&quot;font-size: 21px&quot;&gt;Calendar&lt;/font&gt;" style="rounded=0;whiteSpace=wrap;html=1;" parent="1" vertex="1">
          <mxGeometry x="20" y="20" width="120" height="60" as="geometry"/>
        </mxCell>
        <mxCell id="XQnTNOkBBtBdeSh8OOss-279" value="&lt;font style=&quot;font-size: 21px&quot;&gt;Date&lt;/font&gt;" style="rounded=0;whiteSpace=wrap;html=1;" parent="1" vertex="1">
          <mxGeometry x="200" y="20" width="120" height="60" as="geometry"/>
        </mxCell>
        <mxCell id="XQnTNOkBBtBdeSh8OOss-280" value="&lt;span style=&quot;font-size: 21px&quot;&gt;DateFormat&lt;/span&gt;" style="rounded=0;whiteSpace=wrap;html=1;" parent="1" vertex="1">
          <mxGeometry x="380" y="20" width="120" height="60" as="geometry"/>
        </mxCell>
        <mxCell id="XQnTNOkBBtBdeSh8OOss-281" value="对日期进行操作，修改" style="text;html=1;resizable=0;points=[];autosize=1;align=left;verticalAlign=top;spacingTop=-4;" parent="1" vertex="1">
          <mxGeometry x="20" y="92" width="140" height="20" as="geometry"/>
        </mxCell>
        <mxCell id="XQnTNOkBBtBdeSh8OOss-283" value="打印输出、解析字符串" style="text;html=1;resizable=0;points=[];autosize=1;align=left;verticalAlign=top;spacingTop=-4;" parent="1" vertex="1">
          <mxGeometry x="380" y="92" width="140" height="20" as="geometry"/>
        </mxCell>
      </root>
    </mxGraphModel>
  </diagram>
  <diagram id="tZlGKcqwbD7kYuvNEPwW" name="志愿者 web">
    <mxGraphModel dx="1570" dy="970" grid="1" gridSize="10" guides="1" tooltips="1" connect="1" arrows="1" fold="1" page="1" pageScale="1" pageWidth="1169" pageHeight="827" math="0" shadow="0">
      <root>
        <mxCell id="_pgz1n5AA6OWYH4z-gP1-0"/>
        <mxCell id="_pgz1n5AA6OWYH4z-gP1-1" parent="_pgz1n5AA6OWYH4z-gP1-0"/>
        <mxCell id="_pgz1n5AA6OWYH4z-gP1-2" value="" style="rounded=0;whiteSpace=wrap;html=1;" vertex="1" parent="_pgz1n5AA6OWYH4z-gP1-1">
          <mxGeometry x="120" y="90" width="1000" height="1020" as="geometry"/>
        </mxCell>
        <mxCell id="_pgz1n5AA6OWYH4z-gP1-3" value="" style="endArrow=none;html=1;" edge="1" parent="_pgz1n5AA6OWYH4z-gP1-1" target="_pgz1n5AA6OWYH4z-gP1-2">
          <mxGeometry width="50" height="50" relative="1" as="geometry">
            <mxPoint x="120" y="180" as="sourcePoint"/>
            <mxPoint x="170" y="130" as="targetPoint"/>
          </mxGeometry>
        </mxCell>
        <mxCell id="_pgz1n5AA6OWYH4z-gP1-4" value="面包屑" style="rounded=0;whiteSpace=wrap;html=1;" vertex="1" parent="_pgz1n5AA6OWYH4z-gP1-1">
          <mxGeometry x="120" y="90" width="1000" height="90" as="geometry"/>
        </mxCell>
        <mxCell id="_pgz1n5AA6OWYH4z-gP1-6" value="" style="rounded=0;whiteSpace=wrap;html=1;" vertex="1" parent="_pgz1n5AA6OWYH4z-gP1-1">
          <mxGeometry x="120" y="180" width="700" height="930" as="geometry"/>
        </mxCell>
        <mxCell id="_pgz1n5AA6OWYH4z-gP1-7" value="" style="rounded=0;whiteSpace=wrap;html=1;" vertex="1" parent="_pgz1n5AA6OWYH4z-gP1-1">
          <mxGeometry x="850" y="316.5" width="230" height="510" as="geometry"/>
        </mxCell>
        <mxCell id="_pgz1n5AA6OWYH4z-gP1-8" value="" style="rounded=0;whiteSpace=wrap;html=1;" vertex="1" parent="_pgz1n5AA6OWYH4z-gP1-1">
          <mxGeometry x="170" y="257" width="250" height="293" as="geometry"/>
        </mxCell>
        <mxCell id="_pgz1n5AA6OWYH4z-gP1-9" value="" style="rounded=0;whiteSpace=wrap;html=1;" vertex="1" parent="_pgz1n5AA6OWYH4z-gP1-1">
          <mxGeometry x="520" y="257" width="250" height="293" as="geometry"/>
        </mxCell>
        <mxCell id="_pgz1n5AA6OWYH4z-gP1-10" value="" style="rounded=0;whiteSpace=wrap;html=1;" vertex="1" parent="_pgz1n5AA6OWYH4z-gP1-1">
          <mxGeometry x="170" y="257" width="250" height="163" as="geometry"/>
        </mxCell>
        <mxCell id="_pgz1n5AA6OWYH4z-gP1-11" value="标题" style="text;html=1;strokeColor=none;fillColor=none;align=center;verticalAlign=middle;whiteSpace=wrap;rounded=0;fontSize=27;" vertex="1" parent="_pgz1n5AA6OWYH4z-gP1-1">
          <mxGeometry x="170" y="420" width="120" height="50" as="geometry"/>
        </mxCell>
      </root>
    </mxGraphModel>
  </diagram>
</mxfile>
